<mxfile host="app.diagrams.net" modified="2020-04-05T21:42:53.664Z" agent="5.0 (X11; Linux x86_64) AppleWebKit/537.36 (KHTML, like Gecko) Chrome/80.0.3987.87 Safari/537.36" etag="7Vbzc1Xmgdbyc9Yykx3n" version="12.9.8" type="github" pages="2">
  <diagram id="C5RBs43oDa-KdzZeNtuy" name="Page-1">
    <mxGraphModel dx="813" dy="445" grid="1" gridSize="10" guides="1" tooltips="1" connect="1" arrows="1" fold="1" page="1" pageScale="1" pageWidth="827" pageHeight="1169" math="0" shadow="0">
      <root>
        <mxCell id="WIyWlLk6GJQsqaUBKTNV-0" />
        <mxCell id="WIyWlLk6GJQsqaUBKTNV-1" parent="WIyWlLk6GJQsqaUBKTNV-0" />
        <mxCell id="WIyWlLk6GJQsqaUBKTNV-2" value="" style="rounded=0;html=1;jettySize=auto;orthogonalLoop=1;fontSize=11;endArrow=block;endFill=0;endSize=8;strokeWidth=1;shadow=0;labelBackgroundColor=none;edgeStyle=orthogonalEdgeStyle;" parent="WIyWlLk6GJQsqaUBKTNV-1" edge="1">
          <mxGeometry relative="1" as="geometry">
            <mxPoint x="219.5" y="140" as="sourcePoint" />
            <mxPoint x="219.5" y="190" as="targetPoint" />
          </mxGeometry>
        </mxCell>
        <mxCell id="9pCHVQxAuEs4swoLOC2_-3" style="edgeStyle=orthogonalEdgeStyle;rounded=0;orthogonalLoop=1;jettySize=auto;html=1;exitX=0.5;exitY=1;exitDx=0;exitDy=0;entryX=0.5;entryY=0;entryDx=0;entryDy=0;" edge="1" parent="WIyWlLk6GJQsqaUBKTNV-1" source="9pCHVQxAuEs4swoLOC2_-0" target="9pCHVQxAuEs4swoLOC2_-2">
          <mxGeometry relative="1" as="geometry" />
        </mxCell>
        <mxCell id="9pCHVQxAuEs4swoLOC2_-0" value="начало" style="ellipse;whiteSpace=wrap;html=1;" vertex="1" parent="WIyWlLk6GJQsqaUBKTNV-1">
          <mxGeometry x="160" width="120" height="60" as="geometry" />
        </mxCell>
        <mxCell id="9pCHVQxAuEs4swoLOC2_-2" value="задано&lt;br&gt;a = 5&lt;br&gt;b = 6" style="shape=parallelogram;perimeter=parallelogramPerimeter;whiteSpace=wrap;html=1;" vertex="1" parent="WIyWlLk6GJQsqaUBKTNV-1">
          <mxGeometry x="140" y="90" width="160" height="50" as="geometry" />
        </mxCell>
        <mxCell id="9pCHVQxAuEs4swoLOC2_-9" style="edgeStyle=orthogonalEdgeStyle;rounded=0;orthogonalLoop=1;jettySize=auto;html=1;exitX=0.5;exitY=1;exitDx=0;exitDy=0;entryX=0.5;entryY=0;entryDx=0;entryDy=0;" edge="1" parent="WIyWlLk6GJQsqaUBKTNV-1" source="9pCHVQxAuEs4swoLOC2_-5" target="9pCHVQxAuEs4swoLOC2_-6">
          <mxGeometry relative="1" as="geometry" />
        </mxCell>
        <mxCell id="9pCHVQxAuEs4swoLOC2_-5" value="логические побитовые операции&lt;br&gt;m = a OR b&lt;br&gt;m = a AND b&lt;br&gt;m = a XOR b" style="rounded=0;whiteSpace=wrap;html=1;" vertex="1" parent="WIyWlLk6GJQsqaUBKTNV-1">
          <mxGeometry x="110" y="190" width="220" height="60" as="geometry" />
        </mxCell>
        <mxCell id="9pCHVQxAuEs4swoLOC2_-6" value="конец" style="ellipse;whiteSpace=wrap;html=1;" vertex="1" parent="WIyWlLk6GJQsqaUBKTNV-1">
          <mxGeometry x="160" y="290" width="120" height="60" as="geometry" />
        </mxCell>
        <mxCell id="9pCHVQxAuEs4swoLOC2_-16" style="edgeStyle=orthogonalEdgeStyle;rounded=0;orthogonalLoop=1;jettySize=auto;html=1;exitX=0.5;exitY=1;exitDx=0;exitDy=0;" edge="1" parent="WIyWlLk6GJQsqaUBKTNV-1" source="9pCHVQxAuEs4swoLOC2_-11" target="9pCHVQxAuEs4swoLOC2_-12">
          <mxGeometry relative="1" as="geometry" />
        </mxCell>
        <mxCell id="9pCHVQxAuEs4swoLOC2_-11" value="начало" style="ellipse;whiteSpace=wrap;html=1;" vertex="1" parent="WIyWlLk6GJQsqaUBKTNV-1">
          <mxGeometry x="530" width="120" height="60" as="geometry" />
        </mxCell>
        <mxCell id="9pCHVQxAuEs4swoLOC2_-14" style="edgeStyle=orthogonalEdgeStyle;rounded=0;orthogonalLoop=1;jettySize=auto;html=1;exitX=0.5;exitY=1;exitDx=0;exitDy=0;entryX=0.5;entryY=0;entryDx=0;entryDy=0;" edge="1" parent="WIyWlLk6GJQsqaUBKTNV-1" source="9pCHVQxAuEs4swoLOC2_-12" target="9pCHVQxAuEs4swoLOC2_-13">
          <mxGeometry relative="1" as="geometry" />
        </mxCell>
        <mxCell id="9pCHVQxAuEs4swoLOC2_-12" value="задано&lt;br&gt;a = 5" style="shape=parallelogram;perimeter=parallelogramPerimeter;whiteSpace=wrap;html=1;" vertex="1" parent="WIyWlLk6GJQsqaUBKTNV-1">
          <mxGeometry x="510" y="90" width="160" height="50" as="geometry" />
        </mxCell>
        <mxCell id="9pCHVQxAuEs4swoLOC2_-18" style="edgeStyle=orthogonalEdgeStyle;rounded=0;orthogonalLoop=1;jettySize=auto;html=1;entryX=0.5;entryY=0;entryDx=0;entryDy=0;" edge="1" parent="WIyWlLk6GJQsqaUBKTNV-1" source="9pCHVQxAuEs4swoLOC2_-13" target="9pCHVQxAuEs4swoLOC2_-17">
          <mxGeometry relative="1" as="geometry" />
        </mxCell>
        <mxCell id="9pCHVQxAuEs4swoLOC2_-13" value="ввод числа сдвига&lt;br&gt;n" style="shape=parallelogram;perimeter=parallelogramPerimeter;whiteSpace=wrap;html=1;" vertex="1" parent="WIyWlLk6GJQsqaUBKTNV-1">
          <mxGeometry x="510" y="170" width="160" height="60" as="geometry" />
        </mxCell>
        <mxCell id="9pCHVQxAuEs4swoLOC2_-23" style="edgeStyle=orthogonalEdgeStyle;rounded=0;orthogonalLoop=1;jettySize=auto;html=1;exitX=0.5;exitY=1;exitDx=0;exitDy=0;entryX=0.5;entryY=0;entryDx=0;entryDy=0;" edge="1" parent="WIyWlLk6GJQsqaUBKTNV-1" source="9pCHVQxAuEs4swoLOC2_-17" target="9pCHVQxAuEs4swoLOC2_-19">
          <mxGeometry relative="1" as="geometry" />
        </mxCell>
        <mxCell id="9pCHVQxAuEs4swoLOC2_-17" value="сдвиг влево &amp;gt;&amp;gt;&lt;br&gt;сдвиг вправо &amp;lt;&amp;lt;" style="rounded=0;whiteSpace=wrap;html=1;" vertex="1" parent="WIyWlLk6GJQsqaUBKTNV-1">
          <mxGeometry x="530" y="260" width="120" height="60" as="geometry" />
        </mxCell>
        <mxCell id="9pCHVQxAuEs4swoLOC2_-19" value="конец" style="ellipse;whiteSpace=wrap;html=1;" vertex="1" parent="WIyWlLk6GJQsqaUBKTNV-1">
          <mxGeometry x="530" y="350" width="120" height="60" as="geometry" />
        </mxCell>
      </root>
    </mxGraphModel>
  </diagram>
  <diagram id="9nhmOq_bPgOXuI3Mzl39" name="Page-2">
    <mxGraphModel dx="813" dy="445" grid="1" gridSize="10" guides="1" tooltips="1" connect="1" arrows="1" fold="1" page="1" pageScale="1" pageWidth="827" pageHeight="1169" math="0" shadow="0">
      <root>
        <mxCell id="p_nmdXImSghK3W7SCZ9o-0" />
        <mxCell id="p_nmdXImSghK3W7SCZ9o-1" parent="p_nmdXImSghK3W7SCZ9o-0" />
      </root>
    </mxGraphModel>
  </diagram>
</mxfile>
